<svg width="1200" height="472" viewBox="0 0 1200 472" fill="none" xmlns="http://www.w3.org/2000/svg">
<rect x="51" y="165" width="498" height="142" rx="9" stroke="black" stroke-width="2"/>
<path d="M223.331 249V222.818H239.132V225.631H226.501V234.477H238.314V237.29H226.501V246.188H239.336V249H223.331ZM247.454 237.188V249H244.437V229.364H247.352V232.432H247.608C248.068 231.435 248.767 230.634 249.704 230.028C250.642 229.415 251.852 229.108 253.335 229.108C254.664 229.108 255.828 229.381 256.825 229.926C257.822 230.463 258.598 231.281 259.152 232.381C259.706 233.472 259.983 234.852 259.983 236.523V249H256.966V236.727C256.966 235.185 256.565 233.983 255.764 233.122C254.963 232.253 253.863 231.818 252.466 231.818C251.502 231.818 250.642 232.027 249.883 232.445C249.133 232.862 248.541 233.472 248.106 234.273C247.672 235.074 247.454 236.045 247.454 237.188ZM273.473 249.409C271.632 249.409 270.047 248.974 268.717 248.105C267.388 247.236 266.365 246.038 265.649 244.513C264.933 242.987 264.575 241.244 264.575 239.284C264.575 237.29 264.942 235.53 265.675 234.004C266.416 232.47 267.447 231.273 268.768 230.412C270.098 229.543 271.649 229.108 273.422 229.108C274.803 229.108 276.047 229.364 277.155 229.875C278.263 230.386 279.17 231.102 279.878 232.023C280.585 232.943 281.024 234.017 281.195 235.244H278.178C277.947 234.349 277.436 233.557 276.643 232.866C275.859 232.168 274.803 231.818 273.473 231.818C272.297 231.818 271.266 232.125 270.379 232.739C269.501 233.344 268.815 234.2 268.321 235.308C267.835 236.408 267.592 237.699 267.592 239.182C267.592 240.699 267.831 242.02 268.308 243.145C268.794 244.27 269.476 245.143 270.354 245.766C271.24 246.388 272.28 246.699 273.473 246.699C274.257 246.699 274.969 246.562 275.608 246.29C276.247 246.017 276.788 245.625 277.232 245.114C277.675 244.602 277.99 243.989 278.178 243.273H281.195C281.024 244.432 280.602 245.476 279.929 246.405C279.264 247.325 278.382 248.058 277.283 248.604C276.192 249.141 274.922 249.409 273.473 249.409ZM293.582 249.409C291.81 249.409 290.254 248.987 288.916 248.143C287.587 247.3 286.547 246.119 285.797 244.602C285.055 243.085 284.685 241.312 284.685 239.284C284.685 237.239 285.055 235.453 285.797 233.928C286.547 232.402 287.587 231.217 288.916 230.374C290.254 229.53 291.81 229.108 293.582 229.108C295.355 229.108 296.906 229.53 298.236 230.374C299.574 231.217 300.614 232.402 301.355 233.928C302.105 235.453 302.48 237.239 302.48 239.284C302.48 241.312 302.105 243.085 301.355 244.602C300.614 246.119 299.574 247.3 298.236 248.143C296.906 248.987 295.355 249.409 293.582 249.409ZM293.582 246.699C294.929 246.699 296.037 246.354 296.906 245.663C297.776 244.973 298.419 244.065 298.837 242.94C299.254 241.815 299.463 240.597 299.463 239.284C299.463 237.972 299.254 236.749 298.837 235.615C298.419 234.482 297.776 233.565 296.906 232.866C296.037 232.168 294.929 231.818 293.582 231.818C292.236 231.818 291.128 232.168 290.259 232.866C289.389 233.565 288.746 234.482 288.328 235.615C287.911 236.749 287.702 237.972 287.702 239.284C287.702 240.597 287.911 241.815 288.328 242.94C288.746 244.065 289.389 244.973 290.259 245.663C291.128 246.354 292.236 246.699 293.582 246.699ZM314.5 249.409C312.864 249.409 311.419 248.996 310.167 248.169C308.914 247.334 307.934 246.158 307.226 244.641C306.519 243.115 306.165 241.312 306.165 239.233C306.165 237.17 306.519 235.381 307.226 233.864C307.934 232.347 308.918 231.175 310.179 230.348C311.441 229.521 312.898 229.108 314.551 229.108C315.83 229.108 316.84 229.321 317.581 229.747C318.331 230.165 318.902 230.642 319.294 231.179C319.695 231.707 320.006 232.142 320.228 232.483H320.483V222.818H323.5V249H320.586V245.983H320.228C320.006 246.341 319.691 246.793 319.282 247.338C318.873 247.875 318.289 248.357 317.53 248.783C316.772 249.2 315.762 249.409 314.5 249.409ZM314.909 246.699C316.12 246.699 317.142 246.384 317.978 245.753C318.813 245.114 319.448 244.232 319.882 243.107C320.317 241.973 320.534 240.665 320.534 239.182C320.534 237.716 320.321 236.433 319.895 235.334C319.469 234.226 318.838 233.365 318.003 232.751C317.168 232.129 316.137 231.818 314.909 231.818C313.631 231.818 312.566 232.146 311.713 232.803C310.87 233.45 310.235 234.332 309.809 235.449C309.391 236.557 309.182 237.801 309.182 239.182C309.182 240.58 309.395 241.849 309.821 242.991C310.256 244.125 310.895 245.028 311.739 245.702C312.591 246.366 313.648 246.699 314.909 246.699ZM337.678 249.409C335.786 249.409 334.154 248.991 332.782 248.156C331.418 247.312 330.365 246.136 329.624 244.628C328.891 243.111 328.525 241.347 328.525 239.335C328.525 237.324 328.891 235.551 329.624 234.017C330.365 232.474 331.397 231.273 332.718 230.412C334.047 229.543 335.598 229.108 337.371 229.108C338.394 229.108 339.404 229.278 340.401 229.619C341.398 229.96 342.306 230.514 343.124 231.281C343.942 232.04 344.594 233.045 345.08 234.298C345.566 235.551 345.809 237.094 345.809 238.926V240.205H330.672V237.597H342.74C342.74 236.489 342.519 235.5 342.076 234.631C341.641 233.761 341.019 233.075 340.209 232.572C339.408 232.07 338.462 231.818 337.371 231.818C336.169 231.818 335.13 232.116 334.252 232.713C333.382 233.301 332.713 234.068 332.245 235.014C331.776 235.96 331.542 236.974 331.542 238.057V239.795C331.542 241.278 331.797 242.536 332.309 243.567C332.828 244.589 333.549 245.369 334.469 245.906C335.39 246.435 336.459 246.699 337.678 246.699C338.471 246.699 339.186 246.588 339.826 246.366C340.473 246.136 341.032 245.795 341.5 245.344C341.969 244.884 342.331 244.312 342.587 243.631L345.502 244.449C345.195 245.438 344.679 246.307 343.955 247.057C343.23 247.798 342.336 248.378 341.27 248.795C340.205 249.205 339.007 249.409 337.678 249.409ZM350.398 249V229.364H353.313V232.33H353.517C353.875 231.358 354.523 230.57 355.461 229.964C356.398 229.359 357.455 229.057 358.631 229.057C358.853 229.057 359.13 229.061 359.462 229.07C359.794 229.078 360.046 229.091 360.216 229.108V232.176C360.114 232.151 359.88 232.112 359.513 232.061C359.155 232.001 358.776 231.972 358.375 231.972C357.421 231.972 356.569 232.172 355.819 232.572C355.077 232.964 354.489 233.51 354.054 234.209C353.628 234.899 353.415 235.687 353.415 236.574V249H350.398ZM377.702 233.761L374.991 234.528C374.821 234.077 374.57 233.638 374.237 233.212C373.913 232.777 373.47 232.419 372.908 232.138C372.345 231.857 371.625 231.716 370.747 231.716C369.545 231.716 368.544 231.993 367.743 232.547C366.95 233.092 366.554 233.787 366.554 234.631C366.554 235.381 366.827 235.973 367.372 236.408C367.918 236.842 368.77 237.205 369.929 237.494L372.844 238.21C374.599 238.636 375.908 239.288 376.768 240.166C377.629 241.036 378.06 242.156 378.06 243.528C378.06 244.653 377.736 245.659 377.088 246.545C376.449 247.432 375.554 248.131 374.403 248.642C373.253 249.153 371.915 249.409 370.389 249.409C368.386 249.409 366.729 248.974 365.416 248.105C364.104 247.236 363.273 245.966 362.923 244.295L365.787 243.58C366.06 244.636 366.575 245.429 367.334 245.957C368.101 246.486 369.102 246.75 370.338 246.75C371.744 246.75 372.861 246.452 373.688 245.855C374.523 245.25 374.94 244.526 374.94 243.682C374.94 243 374.702 242.429 374.224 241.969C373.747 241.5 373.014 241.151 372.026 240.92L368.753 240.153C366.955 239.727 365.634 239.067 364.79 238.172C363.955 237.268 363.537 236.139 363.537 234.784C363.537 233.676 363.848 232.696 364.47 231.844C365.101 230.991 365.957 230.322 367.04 229.837C368.131 229.351 369.366 229.108 370.747 229.108C372.69 229.108 374.216 229.534 375.324 230.386C376.44 231.239 377.233 232.364 377.702 233.761Z" fill="black"/>
<path d="M300 318L282.679 348H317.321L300 318ZM303 368V345H297V368H303Z" fill="black"/>
<rect x="51" y="369" width="498" height="102" rx="9" fill="#1E1E1E"/>
<rect x="51" y="369" width="498" height="102" rx="9" stroke="black" stroke-width="2"/>
<path d="M263.081 406.818V433H259.911V406.818H263.081ZM272.046 421.188V433H269.029V413.364H271.944V416.432H272.199C272.66 415.435 273.358 414.634 274.296 414.028C275.233 413.415 276.444 413.108 277.927 413.108C279.256 413.108 280.42 413.381 281.417 413.926C282.414 414.463 283.189 415.281 283.743 416.381C284.297 417.472 284.574 418.852 284.574 420.523V433H281.557V420.727C281.557 419.185 281.157 417.983 280.356 417.122C279.555 416.253 278.455 415.818 277.057 415.818C276.094 415.818 275.233 416.027 274.475 416.445C273.725 416.862 273.133 417.472 272.698 418.273C272.263 419.074 272.046 420.045 272.046 421.188ZM290.088 440.364V413.364H293.002V416.483H293.36C293.582 416.142 293.889 415.707 294.281 415.179C294.681 414.642 295.252 414.165 295.994 413.747C296.744 413.321 297.758 413.108 299.036 413.108C300.69 413.108 302.147 413.521 303.409 414.348C304.67 415.175 305.654 416.347 306.362 417.864C307.069 419.381 307.423 421.17 307.423 423.233C307.423 425.312 307.069 427.115 306.362 428.641C305.654 430.158 304.674 431.334 303.421 432.169C302.169 432.996 300.724 433.409 299.088 433.409C297.826 433.409 296.816 433.2 296.058 432.783C295.299 432.357 294.715 431.875 294.306 431.338C293.897 430.793 293.582 430.341 293.36 429.983H293.105V440.364H290.088ZM293.053 423.182C293.053 424.665 293.271 425.973 293.705 427.107C294.14 428.232 294.775 429.114 295.61 429.753C296.445 430.384 297.468 430.699 298.678 430.699C299.94 430.699 300.992 430.366 301.836 429.702C302.688 429.028 303.328 428.125 303.754 426.991C304.188 425.849 304.406 424.58 304.406 423.182C304.406 421.801 304.193 420.557 303.767 419.449C303.349 418.332 302.714 417.45 301.862 416.803C301.018 416.146 299.957 415.818 298.678 415.818C297.451 415.818 296.42 416.129 295.585 416.751C294.749 417.365 294.119 418.226 293.693 419.334C293.267 420.433 293.053 421.716 293.053 423.182ZM324.4 424.972V413.364H327.417V433H324.4V429.676H324.195C323.735 430.673 323.019 431.521 322.048 432.22C321.076 432.911 319.849 433.256 318.366 433.256C317.139 433.256 316.048 432.987 315.093 432.45C314.139 431.905 313.389 431.087 312.843 429.996C312.298 428.896 312.025 427.511 312.025 425.841V413.364H315.042V425.636C315.042 427.068 315.443 428.21 316.244 429.062C317.053 429.915 318.085 430.341 319.338 430.341C320.088 430.341 320.85 430.149 321.626 429.766C322.41 429.382 323.066 428.794 323.595 428.001C324.132 427.209 324.4 426.199 324.4 424.972ZM341.483 413.364V415.92H331.307V413.364H341.483ZM334.273 408.659H337.29V427.375C337.29 428.227 337.413 428.866 337.66 429.293C337.916 429.71 338.24 429.991 338.632 430.136C339.032 430.273 339.454 430.341 339.898 430.341C340.23 430.341 340.503 430.324 340.716 430.29C340.929 430.247 341.099 430.213 341.227 430.188L341.841 432.898C341.636 432.974 341.351 433.051 340.984 433.128C340.618 433.213 340.153 433.256 339.591 433.256C338.738 433.256 337.903 433.072 337.085 432.706C336.275 432.339 335.602 431.781 335.065 431.031C334.537 430.281 334.273 429.335 334.273 428.193V408.659Z" fill="white"/>
<path d="M650 236L620 218.679V253.321L650 236ZM550 239H623V233H550V239Z" fill="black"/>
<rect x="651" y="1" width="498" height="102" rx="9" fill="#1E1E1E"/>
<rect x="651" y="1" width="498" height="102" rx="9" stroke="black" stroke-width="2"/>
<path d="M866.586 51.9091C866.586 54.6705 866.087 57.0568 865.09 59.0682C864.093 61.0795 862.725 62.6307 860.986 63.7216C859.248 64.8125 857.262 65.358 855.029 65.358C852.796 65.358 850.81 64.8125 849.071 63.7216C847.333 62.6307 845.965 61.0795 844.968 59.0682C843.971 57.0568 843.472 54.6705 843.472 51.9091C843.472 49.1477 843.971 46.7614 844.968 44.75C845.965 42.7386 847.333 41.1875 849.071 40.0966C850.81 39.0057 852.796 38.4602 855.029 38.4602C857.262 38.4602 859.248 39.0057 860.986 40.0966C862.725 41.1875 864.093 42.7386 865.09 44.75C866.087 46.7614 866.586 49.1477 866.586 51.9091ZM863.517 51.9091C863.517 49.642 863.138 47.7287 862.38 46.169C861.63 44.6094 860.611 43.429 859.324 42.6278C858.046 41.8267 856.614 41.4261 855.029 41.4261C853.444 41.4261 852.007 41.8267 850.721 42.6278C849.442 43.429 848.424 44.6094 847.665 46.169C846.915 47.7287 846.54 49.642 846.54 51.9091C846.54 54.1761 846.915 56.0895 847.665 57.6491C848.424 59.2088 849.442 60.3892 850.721 61.1903C852.007 61.9915 853.444 62.392 855.029 62.392C856.614 62.392 858.046 61.9915 859.324 61.1903C860.611 60.3892 861.63 59.2088 862.38 57.6491C863.138 56.0895 863.517 54.1761 863.517 51.9091ZM883.882 56.9716V45.3636H886.9V65H883.882V61.6761H883.678C883.218 62.6733 882.502 63.5213 881.53 64.2202C880.559 64.9105 879.331 65.2557 877.848 65.2557C876.621 65.2557 875.53 64.9872 874.576 64.4503C873.621 63.9048 872.871 63.0866 872.326 61.9957C871.78 60.8963 871.507 59.5114 871.507 57.8409V45.3636H874.525V57.6364C874.525 59.0682 874.925 60.2102 875.726 61.0625C876.536 61.9148 877.567 62.3409 878.82 62.3409C879.57 62.3409 880.333 62.1491 881.108 61.7656C881.892 61.3821 882.549 60.794 883.077 60.0014C883.614 59.2088 883.882 58.1989 883.882 56.9716ZM900.965 45.3636V47.9205H890.789V45.3636H900.965ZM893.755 40.6591H896.772V59.375C896.772 60.2273 896.896 60.8665 897.143 61.2926C897.398 61.7102 897.722 61.9915 898.114 62.1364C898.515 62.2727 898.937 62.3409 899.38 62.3409C899.712 62.3409 899.985 62.3239 900.198 62.2898C900.411 62.2472 900.582 62.2131 900.71 62.1875L901.323 64.8977C901.119 64.9744 900.833 65.0511 900.467 65.1278C900.1 65.2131 899.636 65.2557 899.073 65.2557C898.221 65.2557 897.386 65.0724 896.567 64.706C895.758 64.3395 895.085 63.7812 894.548 63.0312C894.019 62.2812 893.755 61.3352 893.755 60.1932V40.6591ZM905.504 72.3636V45.3636H908.418V48.483H908.776C908.998 48.142 909.305 47.7074 909.697 47.179C910.097 46.642 910.668 46.1648 911.41 45.7472C912.16 45.321 913.174 45.108 914.452 45.108C916.106 45.108 917.563 45.5213 918.825 46.348C920.086 47.1747 921.07 48.3466 921.778 49.8636C922.485 51.3807 922.839 53.1705 922.839 55.233C922.839 57.3125 922.485 59.1151 921.778 60.6406C921.07 62.1577 920.09 63.3338 918.837 64.169C917.585 64.9957 916.14 65.4091 914.504 65.4091C913.242 65.4091 912.232 65.2003 911.474 64.7827C910.715 64.3565 910.131 63.875 909.722 63.3381C909.313 62.7926 908.998 62.3409 908.776 61.983H908.521V72.3636H905.504ZM908.469 55.1818C908.469 56.6648 908.687 57.973 909.121 59.1065C909.556 60.2315 910.191 61.1136 911.026 61.7528C911.862 62.3835 912.884 62.6989 914.094 62.6989C915.356 62.6989 916.408 62.3665 917.252 61.7017C918.104 61.0284 918.744 60.125 919.17 58.9915C919.604 57.8494 919.822 56.5795 919.822 55.1818C919.822 53.8011 919.609 52.5568 919.183 51.4489C918.765 50.3324 918.13 49.4503 917.278 48.8026C916.434 48.1463 915.373 47.8182 914.094 47.8182C912.867 47.8182 911.836 48.1293 911.001 48.7514C910.165 49.3651 909.535 50.2259 909.109 51.3338C908.683 52.4332 908.469 53.7159 908.469 55.1818ZM939.816 56.9716V45.3636H942.833V65H939.816V61.6761H939.612C939.151 62.6733 938.435 63.5213 937.464 64.2202C936.492 64.9105 935.265 65.2557 933.782 65.2557C932.555 65.2557 931.464 64.9872 930.509 64.4503C929.555 63.9048 928.805 63.0866 928.259 61.9957C927.714 60.8963 927.441 59.5114 927.441 57.8409V45.3636H930.458V57.6364C930.458 59.0682 930.859 60.2102 931.66 61.0625C932.469 61.9148 933.501 62.3409 934.754 62.3409C935.504 62.3409 936.266 62.1491 937.042 61.7656C937.826 61.3821 938.482 60.794 939.011 60.0014C939.548 59.2088 939.816 58.1989 939.816 56.9716ZM956.899 45.3636V47.9205H946.723V45.3636H956.899ZM949.689 40.6591H952.706V59.375C952.706 60.2273 952.829 60.8665 953.076 61.2926C953.332 61.7102 953.656 61.9915 954.048 62.1364C954.449 62.2727 954.87 62.3409 955.314 62.3409C955.646 62.3409 955.919 62.3239 956.132 62.2898C956.345 62.2472 956.515 62.2131 956.643 62.1875L957.257 64.8977C957.052 64.9744 956.767 65.0511 956.4 65.1278C956.034 65.2131 955.569 65.2557 955.007 65.2557C954.154 65.2557 953.319 65.0724 952.501 64.706C951.691 64.3395 951.018 63.7812 950.481 63.0312C949.953 62.2812 949.689 61.3352 949.689 60.1932V40.6591Z" fill="white"/>
<path d="M900 104L882.679 134H917.321L900 104ZM903 154V121H897V154H903ZM903 121V106.5H897V121H903Z" fill="black"/>
<rect x="651" y="165" width="498" height="142" rx="9" stroke="black" stroke-width="2"/>
<path d="M829.283 249H821.204V222.818H829.641C832.181 222.818 834.354 223.342 836.161 224.391C837.968 225.43 839.353 226.926 840.316 228.878C841.279 230.821 841.76 233.148 841.76 235.858C841.76 238.585 841.275 240.933 840.303 242.902C839.331 244.862 837.917 246.371 836.059 247.428C834.201 248.476 831.942 249 829.283 249ZM824.374 246.188H829.079C831.243 246.188 833.037 245.77 834.461 244.935C835.884 244.099 836.945 242.911 837.644 241.368C838.343 239.825 838.692 237.989 838.692 235.858C838.692 233.744 838.347 231.925 837.657 230.399C836.966 228.865 835.935 227.689 834.563 226.871C833.191 226.044 831.482 225.631 829.437 225.631H824.374V246.188ZM854.903 249.409C853.01 249.409 851.378 248.991 850.006 248.156C848.643 247.312 847.59 246.136 846.849 244.628C846.116 243.111 845.749 241.347 845.749 239.335C845.749 237.324 846.116 235.551 846.849 234.017C847.59 232.474 848.621 231.273 849.942 230.412C851.272 229.543 852.823 229.108 854.596 229.108C855.618 229.108 856.628 229.278 857.626 229.619C858.623 229.96 859.53 230.514 860.349 231.281C861.167 232.04 861.819 233.045 862.305 234.298C862.79 235.551 863.033 237.094 863.033 238.926V240.205H847.897V237.597H859.965C859.965 236.489 859.743 235.5 859.3 234.631C858.866 233.761 858.243 233.075 857.434 232.572C856.633 232.07 855.687 231.818 854.596 231.818C853.394 231.818 852.354 232.116 851.476 232.713C850.607 233.301 849.938 234.068 849.469 235.014C849.001 235.96 848.766 236.974 848.766 238.057V239.795C848.766 241.278 849.022 242.536 849.533 243.567C850.053 244.589 850.773 245.369 851.694 245.906C852.614 246.435 853.684 246.699 854.903 246.699C855.695 246.699 856.411 246.588 857.05 246.366C857.698 246.136 858.256 245.795 858.725 245.344C859.194 244.884 859.556 244.312 859.812 243.631L862.726 244.449C862.42 245.438 861.904 246.307 861.18 247.057C860.455 247.798 859.56 248.378 858.495 248.795C857.43 249.205 856.232 249.409 854.903 249.409ZM875.6 249.409C873.759 249.409 872.174 248.974 870.844 248.105C869.515 247.236 868.492 246.038 867.776 244.513C867.06 242.987 866.702 241.244 866.702 239.284C866.702 237.29 867.069 235.53 867.802 234.004C868.543 232.47 869.574 231.273 870.895 230.412C872.225 229.543 873.776 229.108 875.549 229.108C876.93 229.108 878.174 229.364 879.282 229.875C880.39 230.386 881.297 231.102 882.005 232.023C882.712 232.943 883.151 234.017 883.322 235.244H880.305C880.074 234.349 879.563 233.557 878.77 232.866C877.986 232.168 876.93 231.818 875.6 231.818C874.424 231.818 873.393 232.125 872.506 232.739C871.628 233.344 870.942 234.2 870.448 235.308C869.962 236.408 869.719 237.699 869.719 239.182C869.719 240.699 869.958 242.02 870.435 243.145C870.921 244.27 871.603 245.143 872.481 245.766C873.367 246.388 874.407 246.699 875.6 246.699C876.384 246.699 877.096 246.562 877.735 246.29C878.374 246.017 878.915 245.625 879.358 245.114C879.802 244.602 880.117 243.989 880.305 243.273H883.322C883.151 244.432 882.729 245.476 882.056 246.405C881.391 247.325 880.509 248.058 879.41 248.604C878.319 249.141 877.049 249.409 875.6 249.409ZM895.709 249.409C893.937 249.409 892.381 248.987 891.043 248.143C889.714 247.3 888.674 246.119 887.924 244.602C887.182 243.085 886.812 241.312 886.812 239.284C886.812 237.239 887.182 235.453 887.924 233.928C888.674 232.402 889.714 231.217 891.043 230.374C892.381 229.53 893.937 229.108 895.709 229.108C897.482 229.108 899.033 229.53 900.363 230.374C901.701 231.217 902.741 232.402 903.482 233.928C904.232 235.453 904.607 237.239 904.607 239.284C904.607 241.312 904.232 243.085 903.482 244.602C902.741 246.119 901.701 247.3 900.363 248.143C899.033 248.987 897.482 249.409 895.709 249.409ZM895.709 246.699C897.056 246.699 898.164 246.354 899.033 245.663C899.903 244.973 900.546 244.065 900.964 242.94C901.381 241.815 901.59 240.597 901.59 239.284C901.59 237.972 901.381 236.749 900.964 235.615C900.546 234.482 899.903 233.565 899.033 232.866C898.164 232.168 897.056 231.818 895.709 231.818C894.363 231.818 893.255 232.168 892.385 232.866C891.516 233.565 890.873 234.482 890.455 235.615C890.037 236.749 889.829 237.972 889.829 239.284C889.829 240.597 890.037 241.815 890.455 242.94C890.873 244.065 891.516 244.973 892.385 245.663C893.255 246.354 894.363 246.699 895.709 246.699ZM916.627 249.409C914.991 249.409 913.546 248.996 912.294 248.169C911.041 247.334 910.061 246.158 909.353 244.641C908.646 243.115 908.292 241.312 908.292 239.233C908.292 237.17 908.646 235.381 909.353 233.864C910.061 232.347 911.045 231.175 912.306 230.348C913.568 229.521 915.025 229.108 916.678 229.108C917.957 229.108 918.967 229.321 919.708 229.747C920.458 230.165 921.029 230.642 921.421 231.179C921.822 231.707 922.133 232.142 922.355 232.483H922.61V222.818H925.627V249H922.713V245.983H922.355C922.133 246.341 921.818 246.793 921.409 247.338C920.999 247.875 920.416 248.357 919.657 248.783C918.899 249.2 917.889 249.409 916.627 249.409ZM917.036 246.699C918.247 246.699 919.269 246.384 920.105 245.753C920.94 245.114 921.575 244.232 922.009 243.107C922.444 241.973 922.661 240.665 922.661 239.182C922.661 237.716 922.448 236.433 922.022 235.334C921.596 234.226 920.965 233.365 920.13 232.751C919.295 232.129 918.264 231.818 917.036 231.818C915.758 231.818 914.693 232.146 913.84 232.803C912.997 233.45 912.362 234.332 911.936 235.449C911.518 236.557 911.309 237.801 911.309 239.182C911.309 240.58 911.522 241.849 911.948 242.991C912.383 244.125 913.022 245.028 913.866 245.702C914.718 246.366 915.775 246.699 917.036 246.699ZM939.805 249.409C937.913 249.409 936.281 248.991 934.909 248.156C933.545 247.312 932.492 246.136 931.751 244.628C931.018 243.111 930.651 241.347 930.651 239.335C930.651 237.324 931.018 235.551 931.751 234.017C932.492 232.474 933.524 231.273 934.845 230.412C936.174 229.543 937.725 229.108 939.498 229.108C940.521 229.108 941.531 229.278 942.528 229.619C943.525 229.96 944.433 230.514 945.251 231.281C946.069 232.04 946.721 233.045 947.207 234.298C947.693 235.551 947.936 237.094 947.936 238.926V240.205H932.799V237.597H944.867C944.867 236.489 944.646 235.5 944.203 234.631C943.768 233.761 943.146 233.075 942.336 232.572C941.535 232.07 940.589 231.818 939.498 231.818C938.296 231.818 937.257 232.116 936.379 232.713C935.509 233.301 934.84 234.068 934.372 235.014C933.903 235.96 933.669 236.974 933.669 238.057V239.795C933.669 241.278 933.924 242.536 934.436 243.567C934.955 244.589 935.676 245.369 936.596 245.906C937.517 246.435 938.586 246.699 939.805 246.699C940.597 246.699 941.313 246.588 941.953 246.366C942.6 246.136 943.159 245.795 943.627 245.344C944.096 244.884 944.458 244.312 944.714 243.631L947.629 244.449C947.322 245.438 946.806 246.307 946.082 247.057C945.357 247.798 944.463 248.378 943.397 248.795C942.332 249.205 941.134 249.409 939.805 249.409ZM952.525 249V229.364H955.44V232.33H955.644C956.002 231.358 956.65 230.57 957.588 229.964C958.525 229.359 959.582 229.057 960.758 229.057C960.98 229.057 961.257 229.061 961.589 229.07C961.921 229.078 962.173 229.091 962.343 229.108V232.176C962.241 232.151 962.007 232.112 961.64 232.061C961.282 232.001 960.903 231.972 960.502 231.972C959.548 231.972 958.695 232.172 957.945 232.572C957.204 232.964 956.616 233.51 956.181 234.209C955.755 234.899 955.542 235.687 955.542 236.574V249H952.525ZM979.829 233.761L977.118 234.528C976.948 234.077 976.697 233.638 976.364 233.212C976.04 232.777 975.597 232.419 975.035 232.138C974.472 231.857 973.752 231.716 972.874 231.716C971.672 231.716 970.671 231.993 969.87 232.547C969.077 233.092 968.681 233.787 968.681 234.631C968.681 235.381 968.954 235.973 969.499 236.408C970.045 236.842 970.897 237.205 972.056 237.494L974.971 238.21C976.726 238.636 978.035 239.288 978.895 240.166C979.756 241.036 980.187 242.156 980.187 243.528C980.187 244.653 979.863 245.659 979.215 246.545C978.576 247.432 977.681 248.131 976.53 248.642C975.38 249.153 974.042 249.409 972.516 249.409C970.513 249.409 968.856 248.974 967.543 248.105C966.231 247.236 965.4 245.966 965.05 244.295L967.914 243.58C968.187 244.636 968.702 245.429 969.461 245.957C970.228 246.486 971.229 246.75 972.465 246.75C973.871 246.75 974.988 246.452 975.814 245.855C976.65 245.25 977.067 244.526 977.067 243.682C977.067 243 976.829 242.429 976.351 241.969C975.874 241.5 975.141 241.151 974.153 240.92L970.88 240.153C969.081 239.727 967.76 239.067 966.917 238.172C966.081 237.268 965.664 236.139 965.664 234.784C965.664 233.676 965.975 232.696 966.597 231.844C967.228 230.991 968.084 230.322 969.167 229.837C970.258 229.351 971.493 229.108 972.874 229.108C974.817 229.108 976.343 229.534 977.451 230.386C978.567 231.239 979.36 232.364 979.829 233.761Z" fill="black"/>
<rect x="41" y="155" width="1118" height="162" rx="9" stroke="black" stroke-width="2" stroke-dasharray="4 4"/>
</svg>
